P3
128 8
255
0 1 0 0 1 0 0 0 0 0 0 0 0 1 0 0 1 13 0 1 30 0 0 45 0 0 59 0 1 72 0 0 90 0 1 104 0 1 118 0 0 133 0 0 149 0 0 162 1 0 184 0 1 190 0 2 205 0 1 225 0 0 241 0 2 249 0 16 253 1 30 255 0 45 255 0 57 253 0 76 252 0 91 252 1 105 255 1 119 255 0 136 254 0 149 253 0 166 253 0 180 254 1 196 252 0 210 250 0 225 254 0 242 255 0 253 250 0 255 241 0 255 223 0 255 210 0 255 192 0 254 178 0 255 164 0 254 150 0 254 132 0 255 119 0 255 102 0 255 89 0 255 73 0 255 57 0 255 45 0 255 29 0 255 13 0 255 0 15 255 0 28 255 0 45 255 0 59 255 0 73 255 0 88 255 0 105 255 0 118 255 0 134 255 0 148 255 1 165 255 0 180 255 0 193 255 0 208 254 0 227 255 0 238 254 0 254 254 0 254 242 0 255 223 0 254 208 0 254 196 0 254 182 0 254 163 0 254 151 0 252 135 0 254 122 0 253 105 0 254 89 0 253 76 0 253 61 0 254 45 0 255 32 1 255 15 0 248 2 0 250 0 13 255 1 31 255 0 43 254 0 56 253 1 76 252 1 88 254 0 106 255 0 118 255 0 136 254 0 150 254 0 163 253 0 178 254 0 196 255 0 208 255 1 227 254 0 237 252 2 249 255 13 255 254 29 255 253 45 252 255 62 251 255 73 253 255 90 255 253 103 254 255 121 252 254 137 252 254 149 254 254 164 254 255 182 255 254 195 253 255 210 255 255 224 255 253 243 252 254 254 254 254 255 255 254 254 255 253 255 254 252 255 251 0 1 0 0 1 0 0 0 0 0 0 0 0 1 0 0 1 13 0 1 30 0 0 45 0 0 59 0 1 72 0 0 90 0 1 104 0 1 118 0 0 133 0 0 149 0 0 162 1 0 184 0 1 190 0 2 205 0 1 225 0 0 241 0 2 249 0 16 253 1 30 255 0 45 255 0 57 253 0 76 252 0 91 252 1 105 255 1 119 255 0 136 254 0 149 253 0 166 253 0 180 254 1 196 252 0 210 250 0 225 254 0 242 255 0 253 250 0 255 241 0 255 223 0 255 210 0 255 192 0 254 178 0 255 164 0 254 150 0 254 132 0 255 119 0 255 102 0 255 89 0 255 73 0 255 57 0 255 45 0 255 29 0 255 13 0 255 0 15 255 0 28 255 0 45 255 0 59 255 0 73 255 0 88 255 0 105 255 0 118 255 0 134 255 0 148 255 1 165 255 0 180 255 0 193 255 0 208 254 0 227 255 0 238 254 0 254 254 0 254 242 0 255 223 0 254 208 0 254 196 0 254 182 0 254 163 0 254 151 0 252 135 0 254 122 0 253 105 0 254 89 0 253 76 0 253 61 0 254 45 0 255 32 1 255 15 0 248 2 0 250 0 13 255 1 31 255 0 43 254 0 56 253 1 76 252 1 88 254 0 106 255 0 118 255 0 136 254 0 150 254 0 163 253 0 178 254 0 196 255 0 208 255 1 227 254 0 237 252 2 249 255 13 255 254 29 255 253 45 252 255 62 251 255 73 253 255 90 255 253 103 254 255 121 252 254 137 252 254 149 254 254 164 254 255 182 255 254 195 253 255 210 255 255 224 255 253 243 252 254 254 254 254 255 255 254 254 255 253 255 254 252 255 251 0 1 0 0 1 0 0 0 0 0 0 0 0 1 0 0 1 13 0 1 30 0 0 45 0 0 59 0 1 72 0 0 90 0 1 104 0 1 118 0 0 133 0 0 149 0 0 162 1 0 184 0 1 190 0 2 205 0 1 225 0 0 241 0 2 249 0 16 253 1 30 255 0 45 255 0 57 253 0 76 252 0 91 252 1 105 255 1 119 255 0 136 254 0 149 253 0 166 253 0 180 254 1 196 252 0 210 250 0 225 254 0 242 255 0 253 250 0 255 241 0 255 223 0 255 210 0 255 192 0 254 178 0 255 164 0 254 150 0 254 132 0 255 119 0 255 102 0 255 89 0 255 73 0 255 57 0 255 45 0 255 29 0 255 13 0 255 0 15 255 0 28 255 0 45 255 0 59 255 0 73 255 0 88 255 0 105 255 0 118 255 0 134 255 0 148 255 1 165 255 0 180 255 0 193 255 0 208 254 0 227 255 0 238 254 0 254 254 0 254 242 0 255 223 0 254 208 0 254 196 0 254 182 0 254 163 0 254 151 0 252 135 0 254 122 0 253 105 0 254 89 0 253 76 0 253 61 0 254 45 0 255 32 1 255 15 0 248 2 0 250 0 13 255 1 31 255 0 43 254 0 56 253 1 76 252 1 88 254 0 106 255 0 118 255 0 136 254 0 150 254 0 163 253 0 178 254 0 196 255 0 208 255 1 227 254 0 237 252 2 249 255 13 255 254 29 255 253 45 252 255 62 251 255 73 253 255 90 255 253 103 254 255 121 252 254 137 252 254 149 254 254 164 254 255 182 255 254 195 253 255 210 255 255 224 255 253 243 252 254 254 254 254 255 255 254 254 255 253 255 254 252 255 251 0 1 0 0 1 0 0 0 0 0 0 0 0 1 0 0 1 13 0 1 30 0 0 45 0 0 59 0 1 72 0 0 90 0 1 104 0 1 118 0 0 133 0 0 149 0 0 162 1 0 184 0 1 190 0 2 205 0 1 225 0 0 241 0 2 249 0 16 253 1 30 255 0 45 255 0 57 253 0 76 252 0 91 252 1 105 255 1 119 255 0 136 254 0 149 253 0 166 253 0 180 254 1 196 252 0 210 250 0 225 254 0 242 255 0 253 250 0 255 241 0 255 223 0 255 210 0 255 192 0 254 178 0 255 164 0 254 150 0 254 132 0 255 119 0 255 102 0 255 89 0 255 73 0 255 57 0 255 45 0 255 29 0 255 13 0 255 0 15 255 0 28 255 0 45 255 0 59 255 0 73 255 0 88 255 0 105 255 0 118 255 0 134 255 0 148 255 1 165 255 0 180 255 0 193 255 0 208 254 0 227 255 0 238 254 0 254 254 0 254 242 0 255 223 0 254 208 0 254 196 0 254 182 0 254 163 0 254 151 0 252 135 0 254 122 0 253 105 0 254 89 0 253 76 0 253 61 0 254 45 0 255 32 1 255 15 0 248 2 0 250 0 13 255 1 31 255 0 43 254 0 56 253 1 76 252 1 88 254 0 106 255 0 118 255 0 136 254 0 150 254 0 163 253 0 178 254 0 196 255 0 208 255 1 227 254 0 237 252 2 249 255 13 255 254 29 255 253 45 252 255 62 251 255 73 253 255 90 255 253 103 254 255 121 252 254 137 252 254 149 254 254 164 254 255 182 255 254 195 253 255 210 255 255 224 255 253 243 252 254 254 254 254 255 255 254 254 255 253 255 254 252 255 251 0 1 0 0 1 0 0 0 0 0 0 0 0 1 0 0 1 13 0 1 30 0 0 45 0 0 59 0 1 72 0 0 90 0 1 104 0 1 118 0 0 133 0 0 149 0 0 162 1 0 184 0 1 190 0 2 205 0 1 225 0 0 241 0 2 249 0 16 253 1 30 255 0 45 255 0 57 253 0 76 252 0 91 252 1 105 255 1 119 255 0 136 254 0 149 253 0 166 253 0 180 254 1 196 252 0 210 250 0 225 254 0 242 255 0 253 250 0 255 241 0 255 223 0 255 210 0 255 192 0 254 178 0 255 164 0 254 150 0 254 132 0 255 119 0 255 102 0 255 89 0 255 73 0 255 57 0 255 45 0 255 29 0 255 13 0 255 0 15 255 0 28 255 0 45 255 0 59 255 0 73 255 0 88 255 0 105 255 0 118 255 0 134 255 0 148 255 1 165 255 0 180 255 0 193 255 0 208 254 0 227 255 0 238 254 0 254 254 0 254 242 0 255 223 0 254 208 0 254 196 0 254 182 0 254 163 0 254 151 0 252 135 0 254 122 0 253 105 0 254 89 0 253 76 0 253 61 0 254 45 0 255 32 1 255 15 0 248 2 0 250 0 13 255 1 31 255 0 43 254 0 56 253 1 76 252 1 88 254 0 106 255 0 118 255 0 136 254 0 150 254 0 163 253 0 178 254 0 196 255 0 208 255 1 227 254 0 237 252 2 249 255 13 255 254 29 255 253 45 252 255 62 251 255 73 253 255 90 255 253 103 254 255 121 252 254 137 252 254 149 254 254 164 254 255 182 255 254 195 253 255 210 255 255 224 255 253 243 252 254 254 254 254 255 255 254 254 255 253 255 254 252 255 251 0 1 0 0 1 0 0 0 0 0 0 0 0 1 0 0 1 13 0 1 30 0 0 45 0 0 59 0 1 72 0 0 90 0 1 104 0 1 118 0 0 133 0 0 149 0 0 162 1 0 184 0 1 190 0 2 205 0 1 225 0 0 241 0 2 249 0 16 253 1 30 255 0 45 255 0 57 253 0 76 252 0 91 252 1 105 255 1 119 255 0 136 254 0 149 253 0 166 253 0 180 254 1 196 252 0 210 250 0 225 254 0 242 255 0 253 250 0 255 241 0 255 223 0 255 210 0 255 192 0 254 178 0 255 164 0 254 150 0 254 132 0 255 119 0 255 102 0 255 89 0 255 73 0 255 57 0 255 45 0 255 29 0 255 13 0 255 0 15 255 0 28 255 0 45 255 0 59 255 0 73 255 0 88 255 0 105 255 0 118 255 0 134 255 0 148 255 1 165 255 0 180 255 0 193 255 0 208 254 0 227 255 0 238 254 0 254 254 0 254 242 0 255 223 0 254 208 0 254 196 0 254 182 0 254 163 0 254 151 0 252 135 0 254 122 0 253 105 0 254 89 0 253 76 0 253 61 0 254 45 0 255 32 1 255 15 0 248 2 0 250 0 13 255 1 31 255 0 43 254 0 56 253 1 76 252 1 88 254 0 106 255 0 118 255 0 136 254 0 150 254 0 163 253 0 178 254 0 196 255 0 208 255 1 227 254 0 237 252 2 249 255 13 255 254 29 255 253 45 252 255 62 251 255 73 253 255 90 255 253 103 254 255 121 252 254 137 252 254 149 254 254 164 254 255 182 255 254 195 253 255 210 255 255 224 255 253 243 252 254 254 254 254 255 255 254 254 255 253 255 254 252 255 251 0 1 0 0 1 0 0 0 0 0 0 0 0 1 0 0 1 13 0 1 30 0 0 45 0 0 59 0 1 72 0 0 90 0 1 104 0 1 118 0 0 133 0 0 149 0 0 162 1 0 184 0 1 190 0 2 205 0 1 225 0 0 241 0 2 249 0 16 253 1 30 255 0 45 255 0 57 253 0 76 252 0 91 252 1 105 255 1 119 255 0 136 254 0 149 253 0 166 253 0 180 254 1 196 252 0 210 250 0 225 254 0 242 255 0 253 250 0 255 241 0 255 223 0 255 210 0 255 192 0 254 178 0 255 164 0 254 150 0 254 132 0 255 119 0 255 102 0 255 89 0 255 73 0 255 57 0 255 45 0 255 29 0 255 13 0 255 0 15 255 0 28 255 0 45 255 0 59 255 0 73 255 0 88 255 0 105 255 0 118 255 0 134 255 0 148 255 1 165 255 0 180 255 0 193 255 0 208 254 0 227 255 0 238 254 0 254 254 0 254 242 0 255 223 0 254 208 0 254 196 0 254 182 0 254 163 0 254 151 0 252 135 0 254 122 0 253 105 0 254 89 0 253 76 0 253 61 0 254 45 0 255 32 1 255 15 0 248 2 0 250 0 13 255 1 31 255 0 43 254 0 56 253 1 76 252 1 88 254 0 106 255 0 118 255 0 136 254 0 150 254 0 163 253 0 178 254 0 196 255 0 208 255 1 227 254 0 237 252 2 249 255 13 255 254 29 255 253 45 252 255 62 251 255 73 253 255 90 255 253 103 254 255 121 252 254 137 252 254 149 254 254 164 254 255 182 255 254 195 253 255 210 255 255 224 255 253 243 252 254 254 254 254 255 255 254 254 255 253 255 254 252 255 251 0 1 0 0 1 0 0 0 0 0 0 0 0 1 0 0 1 13 0 1 30 0 0 45 0 0 59 0 1 72 0 0 90 0 1 104 0 1 118 0 0 133 0 0 149 0 0 162 1 0 184 0 1 190 0 2 205 0 1 225 0 0 241 0 2 249 0 16 253 1 30 255 0 45 255 0 57 253 0 76 252 0 91 252 1 105 255 1 119 255 0 136 254 0 149 253 0 166 253 0 180 254 1 196 252 0 210 250 0 225 254 0 242 255 0 253 250 0 255 241 0 255 223 0 255 210 0 255 192 0 254 178 0 255 164 0 254 150 0 254 132 0 255 119 0 255 102 0 255 89 0 255 73 0 255 57 0 255 45 0 255 29 0 255 13 0 255 0 15 255 0 28 255 0 45 255 0 59 255 0 73 255 0 88 255 0 105 255 0 118 255 0 134 255 0 148 255 1 165 255 0 180 255 0 193 255 0 208 254 0 227 255 0 238 254 0 254 254 0 254 242 0 255 223 0 254 208 0 254 196 0 254 182 0 254 163 0 254 151 0 252 135 0 254 122 0 253 105 0 254 89 0 253 76 0 253 61 0 254 45 0 255 32 1 255 15 0 248 2 0 250 0 13 255 1 31 255 0 43 254 0 56 253 1 76 252 1 88 254 0 106 255 0 118 255 0 136 254 0 150 254 0 163 253 0 178 254 0 196 255 0 208 255 1 227 254 0 237 252 2 249 255 13 255 254 29 255 253 45 252 255 62 251 255 73 253 255 90 255 253 103 254 255 121 252 254 137 252 254 149 254 254 164 254 255 182 255 254 195 253 255 210 255 255 224 255 253 243 252 254 254 254 254 255 255 254 254 255 253 255 254 252 255 251
