P3
128 8
255
0 0 2 0 0 2 0 2 0 0 2 0 0 1 0 1 3 2 0 0 33 0 0 34 0 0 65 0 1 67 0 2 86 0 4 88 0 1 119 0 2 120 0 0 153 0 1 155 0 1 177 1 2 178 2 0 215 4 0 217 0 0 242 1 1 245 0 17 247 8 26 255 0 46 248 6 53 255 0 77 255 5 86 255 0 107 255 4 115 255 1 136 254 8 143 255 0 168 249 3 178 255 0 197 255 4 204 255 0 226 254 5 237 255 0 253 248 0 253 248 0 255 221 0 255 219 0 255 189 0 254 187 1 255 156 0 253 154 0 254 132 0 252 130 0 255 102 0 255 100 0 255 73 0 255 71 0 255 38 0 255 36 0 255 11 0 254 9 14 255 2 18 255 6 45 254 2 49 255 6 78 251 0 83 255 4 107 254 0 111 255 2 137 255 0 141 255 0 164 255 0 169 255 2 197 253 0 201 255 0 230 253 0 233 255 0 254 253 3 247 246 0 253 224 0 244 215 0 255 193 5 249 184 0 252 163 1 245 156 0 255 132 0 249 125 0 253 105 0 244 96 0 255 73 1 248 64 0 255 41 0 254 34 0 255 15 0 245 5 0 249 0 13 255 5 19 250 0 50 251 0 51 251 2 78 252 3 79 255 0 106 255 2 108 253 1 136 254 2 137 250 1 167 252 3 169 254 0 196 255 2 198 255 0 231 255 0 230 250 3 254 255 11 255 248 31 255 255 40 255 252 64 247 255 71 254 251 93 250 255 100 255 255 120 255 255 129 255 252 150 252 255 159 255 251 185 249 255 192 255 250 215 249 255 223 255 255 241 254 255 248 255 255 253 255 255 252 255 254 254 252 255 255 253 0 0 9 0 0 9 0 0 0 0 0 0 0 0 7 1 1 9 0 0 40 0 0 41 0 0 72 0 0 74 0 0 93 0 2 95 0 0 126 0 1 127 0 0 161 0 0 163 0 2 188 0 3 189 0 0 224 0 1 226 0 0 248 0 3 251 0 20 249 2 29 255 0 49 246 0 56 253 0 81 250 0 90 255 0 113 249 0 121 255 0 141 244 2 148 251 0 169 242 3 179 252 0 199 249 4 206 255 0 228 245 5 239 255 0 255 241 0 255 241 0 255 214 0 255 212 0 255 182 0 255 180 1 255 148 0 255 146 0 255 125 0 253 123 3 255 95 1 254 93 1 255 66 0 254 64 2 255 31 0 255 29 4 255 4 2 253 2 19 254 0 23 255 0 51 253 0 55 255 0 84 250 0 89 255 0 112 253 0 116 255 0 142 252 0 146 255 0 170 253 0 175 255 2 203 250 0 207 254 0 235 250 0 238 253 0 255 250 3 253 243 0 255 221 0 250 212 0 255 190 5 255 181 0 255 160 1 251 153 0 255 130 7 251 123 0 253 104 4 244 95 0 255 72 8 248 63 0 255 40 6 254 33 0 255 13 7 246 3 0 249 0 20 255 3 26 250 0 57 251 0 58 251 1 85 252 2 86 255 0 116 255 0 118 253 0 145 254 1 146 250 0 174 252 1 176 254 0 197 255 1 199 255 0 229 255 0 228 250 4 249 255 12 255 248 33 250 255 42 255 252 66 239 255 73 246 245 96 250 252 103 255 250 123 255 255 132 255 247 152 252 255 161 255 246 188 249 253 195 255 244 217 249 252 225 255 250 244 254 255 251 255 252 255 255 251 255 255 248 255 252 249 255 253 0 1 0 0 1 0 0 3 0 0 3 0 0 2 0 1 4 0 0 0 28 0 1 29 0 0 59 0 2 61 0 3 81 0 5 83 0 2 114 0 3 115 0 0 147 0 2 149 4 1 170 5 2 171 6 0 210 8 0 212 2 0 237 5 0 240 3 16 245 12 25 254 3 44 250 10 51 255 0 74 255 9 83 255 0 105 255 6 113 255 5 132 255 12 139 255 0 167 254 3 177 255 0 196 255 4 203 255 0 225 255 5 236 255 0 252 253 0 252 253 0 255 226 0 254 224 0 255 194 0 253 192 1 254 161 0 252 159 0 253 137 0 251 135 0 255 107 0 255 105 0 255 78 0 255 76 0 255 43 0 255 41 0 255 16 0 255 14 9 255 7 13 255 11 41 255 7 45 255 11 74 253 4 79 255 9 102 255 4 106 255 8 132 255 0 136 255 0 160 255 0 165 255 2 193 255 0 197 255 0 225 255 0 228 255 0 250 255 3 243 248 0 249 226 0 240 217 0 254 195 5 245 186 0 248 165 1 241 158 0 255 132 0 251 125 0 253 106 0 244 97 0 255 73 0 250 64 0 255 42 0 254 35 0 255 15 0 246 5 0 249 0 8 255 6 14 251 0 45 252 1 46 252 2 73 253 3 74 255 1 99 255 3 101 253 2 131 254 3 132 250 1 163 252 3 165 254 0 194 255 2 196 255 0 232 255 0 231 250 2 255 255 10 255 248 30 255 255 39 255 252 63 254 255 70 255 255 91 248 255 98 255 255 118 255 255 127 255 255 148 251 255 157 255 255 183 249 255 190 255 254 212 249 255 220 255 255 239 254 255 246 255 255 251 255 255 250 254 255 252 252 255 253 253 0 0 14 0 0 14 0 0 4 0 0 4 0 0 12 1 0 14 0 0 46 0 0 47 0 0 75 0 0 77 0 0 99 0 1 101 0 0 132 0 0 133 0 0 165 0 0 167 0 3 195 0 4 196 0 1 230 0 3 232 0 2 251 0 5 254 0 22 249 0 31 255 0 52 245 0 59 252 0 84 247 0 93 255 0 115 242 0 123 250 0 144 237 0 151 244 0 170 237 3 180 247 0 200 243 4 207 250 0 228 242 5 239 253 0 255 236 0 255 236 0 255 209 0 255 207 0 255 176 0 255 174 1 255 143 0 255 141 0 255 120 0 254 118 8 255 89 6 253 87 5 255 60 3 253 58 6 255 26 4 254 24 8 253 0 6 251 0 24 252 0 28 255 0 55 251 0 59 255 0 88 249 0 93 254 0 116 252 0 120 255 0 147 250 0 151 254 0 174 251 0 179 255 2 207 248 0 211 252 0 239 248 0 242 251 0 255 248 3 255 241 0 255 219 0 254 210 0 255 188 5 255 179 0 255 158 1 255 151 0 255 129 10 251 122 3 255 102 9 246 93 0 255 70 14 250 61 5 255 39 12 254 32 5 255 12 12 246 2 2 249 0 25 255 2 31 251 0 62 252 0 63 252 0 90 253 0 91 255 0 123 255 0 125 253 0 152 254 0 153 250 0 177 252 1 179 254 0 199 255 1 201 255 0 227 255 0 226 250 4 245 255 12 253 248 34 243 255 43 252 252 67 231 255 74 238 241 98 248 248 105 255 246 125 254 255 134 255 243 155 251 252 164 255 241 190 249 248 197 255 240 220 247 248 228 255 246 247 252 253 254 255 248 255 255 247 255 254 244 255 252 245 255 253 0 1 0 0 1 0 0 3 0 0 3 0 0 2 0 1 4 0 0 0 28 0 1 29 0 0 59 0 2 61 0 3 81 0 5 83 0 2 114 0 3 115 0 0 147 0 2 149 4 1 170 5 2 171 6 0 210 8 0 212 2 0 237 5 0 240 3 16 245 12 25 254 3 44 250 10 51 255 0 74 255 9 83 255 0 104 255 8 112 255 5 132 255 12 139 255 0 167 254 3 177 255 0 196 255 4 203 255 0 225 255 5 236 255 0 252 253 0 252 253 0 255 226 0 254 224 0 255 194 0 253 192 1 254 161 0 252 159 0 253 137 0 251 135 0 255 107 0 255 105 0 255 78 0 255 76 0 255 43 0 255 41 0 255 16 0 255 14 9 255 7 13 255 11 41 255 7 45 255 11 74 253 4 79 255 9 102 255 4 106 255 8 132 255 0 136 255 0 160 255 0 165 255 2 193 255 0 197 255 0 225 255 0 228 255 0 250 255 3 243 248 0 249 226 0 240 217 0 254 195 5 245 186 0 248 165 1 241 158 0 255 132 0 252 125 0 255 105 0 246 96 0 255 73 0 250 64 0 255 42 0 255 35 0 255 15 0 248 5 0 250 0 8 255 5 14 251 0 45 252 1 46 252 2 73 253 3 74 255 1 99 255 3 101 253 2 131 254 3 132 250 1 163 252 3 165 254 0 194 255 2 196 255 0 232 255 0 231 250 2 255 255 10 255 248 30 255 255 39 255 252 63 254 255 70 255 255 91 248 255 98 255 255 118 254 255 127 255 255 148 251 255 157 255 255 183 247 255 190 254 254 213 247 255 221 255 255 240 252 255 247 255 255 251 255 255 250 254 255 253 250 255 254 251 0 0 14 0 0 14 0 0 4 0 0 4 0 0 12 1 0 14 0 0 46 0 0 47 0 0 75 0 0 77 0 0 99 0 1 101 0 0 132 0 0 133 0 0 165 0 0 167 0 3 195 0 4 196 0 1 230 0 3 232 0 2 251 0 5 254 0 22 251 0 31 255 0 52 245 0 59 252 0 84 247 0 93 255 0 115 242 0 123 250 0 143 237 0 150 244 0 170 237 3 180 247 0 199 245 4 206 252 0 228 242 5 239 253 0 255 236 0 255 236 0 255 209 0 255 207 0 255 176 0 255 174 1 255 143 0 255 141 0 255 120 0 254 118 6 255 89 4 253 87 5 255 60 3 253 58 6 255 26 4 254 24 8 253 0 6 251 0 24 252 0 28 255 0 55 251 0 59 255 0 88 249 0 93 254 0 116 251 0 120 255 0 147 250 0 151 254 0 174 251 0 179 255 2 207 248 0 211 252 0 239 248 0 242 251 0 255 248 3 255 241 0 255 219 0 254 210 0 255 188 5 255 179 0 255 158 1 255 151 0 255 128 10 252 121 3 255 102 9 246 93 0 255 69 14 251 60 5 255 38 12 255 31 5 255 11 12 248 1 2 250 0 25 255 1 31 253 0 62 254 0 63 253 0 89 254 0 90 255 0 123 255 0 125 253 0 152 254 0 153 250 0 177 252 1 179 254 0 199 255 1 201 255 0 227 255 0 226 250 4 245 255 12 253 248 34 243 255 43 252 252 67 231 255 74 238 241 99 247 248 106 254 246 125 254 255 134 255 243 155 249 252 164 255 241 190 247 248 197 254 240 220 247 248 228 255 246 247 252 253 254 255 248 255 253 247 255 252 244 255 250 245 255 251 0 0 0 0 0 0 0 2 0 0 2 0 0 1 0 1 3 2 0 0 33 0 0 34 0 0 63 0 1 65 0 2 86 0 4 88 0 1 119 0 2 120 0 0 153 0 1 155 0 1 177 1 2 178 2 0 215 4 0 217 0 0 242 1 1 245 0 17 247 8 26 255 0 46 248 6 53 255 0 77 255 5 86 255 0 108 255 4 116 255 2 135 254 9 142 255 0 168 249 3 178 255 0 197 255 4 204 255 0 226 254 5 237 255 0 253 248 0 253 248 0 255 221 0 255 219 0 255 189 0 254 187 1 255 156 0 253 154 0 254 132 0 252 130 0 255 102 0 255 100 0 255 73 0 255 71 0 255 38 0 255 36 0 255 11 0 254 9 14 255 2 18 255 6 45 254 3 49 255 7 78 251 0 83 255 4 107 254 0 111 255 4 137 255 0 141 255 0 164 255 0 169 255 2 197 253 0 201 255 0 230 253 0 233 255 0 254 253 3 247 246 0 253 224 0 244 215 0 255 193 5 249 184 0 252 163 1 245 156 0 255 131 0 252 124 0 255 103 0 247 94 0 255 72 1 251 63 0 255 41 0 255 34 0 255 14 0 248 4 0 250 0 13 255 4 19 253 0 50 254 0 51 253 1 76 254 2 77 255 0 108 255 1 110 253 1 138 254 2 139 250 1 167 252 3 169 254 0 196 255 2 198 255 0 231 255 0 230 250 3 254 255 11 255 248 31 255 255 40 255 252 64 247 255 71 254 251 94 247 255 101 254 255 121 252 255 130 255 252 150 249 255 159 255 251 185 247 255 192 254 250 215 245 255 223 253 255 242 251 255 249 255 255 254 253 255 253 252 254 255 250 255 255 251 0 0 9 0 0 9 0 0 0 0 0 0 0 0 7 1 1 9 0 0 40 0 0 41 0 0 70 0 0 72 0 0 93 0 2 95 0 0 126 0 1 127 0 0 160 0 0 162 0 2 188 0 3 189 0 0 224 0 1 226 0 0 248 0 3 251 0 20 249 2 29 255 0 49 246 0 56 253 0 81 250 0 90 255 0 112 249 0 120 255 0 141 244 2 148 251 0 169 242 3 179 252 0 199 249 4 206 255 0 227 247 5 238 255 0 255 241 0 255 241 0 255 214 0 255 212 0 255 182 0 255 180 1 255 148 0 255 146 0 255 125 0 253 123 3 255 95 1 254 93 1 255 66 0 254 64 2 255 31 0 255 29 4 255 4 2 253 2 19 254 0 23 255 0 51 252 0 55 255 0 84 250 0 89 255 0 112 253 0 116 255 0 142 252 0 146 255 0 170 253 0 175 255 2 203 250 0 207 254 0 235 250 0 238 253 0 255 250 3 253 243 0 255 221 0 250 212 0 255 190 5 255 181 0 255 160 1 251 153 0 255 129 5 252 122 0 255 102 4 247 93 0 255 70 8 251 61 0 255 39 6 255 32 0 255 12 7 248 2 0 250 0 20 255 2 26 253 0 57 254 0 58 253 0 85 254 0 86 255 0 116 255 0 118 253 0 145 254 1 146 250 0 174 252 1 176 254 0 197 255 1 199 255 0 229 255 0 228 250 4 249 255 12 255 248 33 250 255 42 255 252 66 237 255 73 244 245 97 247 252 104 254 250 123 252 255 132 255 247 153 249 255 162 255 246 188 247 253 195 254 244 218 245 252 226 253 250 245 251 255 252 255 252 255 253 251 255 252 248 255 250 249 255 251
