P3
128 8
255
0 2 0 0 2 0 0 2 0 0 2 0 1 0 16 3 0 18 4 0 19 5 0 20 0 0 57 2 1 59 4 3 61 6 5 63 0 2 116 0 3 117 0 5 119 1 7 121 0 0 189 1 0 190 3 2 192 5 4 194 0 0 237 1 2 240 10 11 249 19 20 255 0 48 252 2 55 255 13 66 255 22 75 255 0 109 251 4 117 255 14 127 255 21 134 255 0 169 253 0 179 255 9 188 255 16 195 255 0 225 255 7 236 255 13 242 255 13 242 255 0 255 219 0 254 217 0 252 215 0 250 213 4 254 156 2 252 154 0 250 152 0 248 150 2 255 96 0 254 94 0 252 92 0 250 90 0 255 43 0 255 41 0 255 39 0 253 37 22 250 5 26 254 9 31 255 14 35 255 18 81 250 0 86 255 4 91 255 9 95 255 13 135 255 0 139 255 0 144 255 4 149 255 9 193 255 0 197 255 0 203 255 4 206 255 7 255 250 12 250 243 5 239 232 0 230 223 0 255 194 5 247 185 0 236 174 0 229 167 0 254 133 0 247 126 0 237 116 0 228 107 0 255 72 0 251 63 0 242 54 0 235 47 0 252 15 7 242 5 0 242 5 0 248 11 3 253 0 43 254 0 44 255 4 48 255 5 49 255 0 106 255 1 108 255 3 110 255 4 111 255 0 174 255 0 176 255 0 178 255 2 180 252 2 234 251 1 233 254 4 236 255 12 244 247 33 251 255 42 255 255 52 255 255 59 255 249 94 250 255 101 255 255 112 255 255 121 255 245 154 249 254 163 255 255 174 255 255 181 255 249 215 252 255 223 255 255 233 255 255 240 255 255 255 253 254 254 252 254 254 252 255 255 253 1 0 0 1 0 0 1 0 0 1 0 0 3 0 28 5 0 30 6 0 31 7 0 32 0 0 75 1 0 77 3 0 79 5 2 81 0 0 135 0 1 136 0 3 138 0 5 140 0 0 204 0 1 205 0 3 207 0 5 209 0 3 242 0 6 245 0 15 254 9 24 255 0 54 246 0 61 253 1 72 255 10 81 255 0 118 238 0 126 246 0 136 255 7 143 255 0 175 240 0 185 250 1 194 255 8 201 255 0 231 243 0 242 254 6 248 255 6 248 255 0 255 207 0 255 205 0 255 203 0 254 201 2 255 143 0 255 141 0 253 139 0 251 137 3 255 84 1 255 82 0 254 80 0 252 78 0 255 31 0 255 29 0 255 27 0 253 25 28 250 0 32 254 0 37 255 2 41 255 6 88 249 0 93 254 0 98 255 0 102 255 1 154 247 0 158 251 0 163 255 0 168 255 5 210 247 0 214 251 0 220 255 2 223 255 5 255 242 14 255 235 7 253 224 0 244 215 0 255 188 10 255 179 1 247 168 0 240 161 0 255 127 9 255 120 2 245 110 0 236 101 0 255 68 10 255 59 1 247 50 0 240 43 0 255 11 23 245 1 13 245 1 13 251 7 19 254 0 60 255 0 61 255 0 65 255 1 66 251 0 125 253 0 127 255 2 129 255 3 130 251 0 186 253 0 188 255 0 190 255 2 192 246 4 236 245 3 235 248 6 238 255 14 246 241 38 243 250 47 252 255 57 255 255 64 255 244 99 240 251 106 247 255 117 255 255 126 255 240 159 238 249 168 247 255 179 255 255 186 255 243 218 249 251 226 255 255 236 255 255 243 255 249 255 253 248 255 252 248 255 252 249 255 253 0 4 0 0 4 0 0 4 0 0 4 0 0 0 7 2 1 9 3 2 10 4 3 11 2 0 47 4 2 49 6 4 51 8 6 53 0 3 103 0 4 104 2 6 106 4 8 108 6 0 179 7 0 180 9 1 182 11 3 184 5 0 233 8 0 236 17 8 245 26 17 254 4 42 255 11 49 255 22 60 255 31 69 255 5 102 255 13 110 255 23 120 255 30 127 255 0 167 249 6 177 255 15 186 255 22 193 255 0 224 252 11 235 255 17 241 255 17 241 255 2 255 216 0 253 214 0 251 212 0 249 210 5 254 152 3 252 150 1 250 148 0 248 146 1 255 93 0 255 91 0 254 89 0 252 87 0 255 40 0 255 38 0 255 36 0 255 34 17 254 2 21 255 6 26 255 11 30 255 15 76 254 0 81 255 0 86 255 5 90 255 9 132 255 0 136 255 1 141 255 6 146 255 11 192 255 0 196 255 0 202 255 6 205 255 9 255 251 10 249 244 3 238 233 0 229 224 0 255 194 1 248 185 0 237 174 0 230 167 0 255 132 0 251 125 0 241 115 0 232 106 0 255 71 0 255 62 0 248 53 0 241 46 0 255 14 0 249 4 0 249 4 0 255 10 0 0 180 30 0 181 31 0 185 35 0 186 36 255 0 92 255 1 94 255 3 96 255 4 97 255 0 165 255 0 167 255 0 169 255 1 171 255 0 232 255 0 231 255 2 234 255 10 242 251 31 255 255 40 255 255 50 255 255 57 255 253 90 255 255 97 255 255 108 255 255 117 255 250 150 255 255 159 255 255 170 255 255 177 255 253 212 255 255 220 255 255 230 255 255 237 255 255 253 255 255 252 254 255 252 254 255 253 255 1 0 5 1 0 5 1 0 5 1 0 5 3 0 35 5 0 37 6 0 38 7 0 39 0 0 88 0 0 90 2 0 92 4 0 94 0 0 150 0 0 151 0 2 153 0 4 155 0 0 214 0 1 215 0 3 217 0 5 219 0 6 246 0 9 249 0 18 255 2 27 255 0 59 243 0 66 250 0 77 255 2 86 255 0 124 228 0 132 236 0 142 246 0 149 253 0 180 233 0 190 243 0 199 252 2 206 255 0 234 236 0 245 247 2 251 253 2 251 253 255 80 200 255 78 198 255 76 196 255 74 194 1 255 136 0 255 134 0 255 132 0 253 130 5 255 77 3 255 75 1 254 73 0 252 71 2 255 24 0 255 22 0 254 20 0 252 18 33 248 0 37 252 0 42 255 0 46 255 0 94 247 0 99 252 0 104 255 0 108 255 0 163 242 0 167 246 0 172 251 0 177 255 4 220 242 0 224 246 0 230 252 2 233 255 5 255 238 14 255 231 7 255 220 0 253 211 0 255 183 14 255 174 5 254 163 0 247 156 0 255 124 16 255 117 9 249 107 0 240 98 0 255 65 19 255 56 10 249 47 1 242 40 0 255 9 34 245 0 24 245 0 24 251 5 30 254 0 73 255 0 74 255 0 78 255 0 79 247 0 139 249 0 141 251 1 143 252 2 144 247 0 195 249 0 197 251 1 199 253 3 201 242 6 238 241 5 237 244 8 240 252 16 248 237 41 237 246 50 246 255 60 255 255 67 255 239 102 231 246 109 238 255 120 249 255 129 255 235 162 231 244 171 240 255 182 251 255 189 255 239 221 245 247 229 253 255 239 255 255 246 255 245 255 253 244 255 252 244 255 252 245 255 253 0 5 0 0 5 0 0 5 0 0 5 0 0 0 7 1 1 9 2 2 10 3 3 11 0 1 47 2 3 49 4 5 51 6 7 53 0 3 103 0 4 104 2 6 106 4 8 108 7 0 179 8 0 180 10 1 182 12 3 184 6 0 233 9 0 236 18 8 245 27 17 254 6 41 255 13 48 255 24 59 255 33 68 255 8 101 255 16 109 255 26 119 255 33 126 255 0 166 254 5 176 255 14 185 255 21 192 255 0 222 255 11 233 255 17 239 255 17 239 255 1 255 221 0 253 219 0 251 217 0 249 215 5 253 157 3 251 155 1 249 153 0 247 151 1 255 98 0 254 96 0 252 94 0 250 92 0 255 45 0 255 43 0 255 41 0 254 39 17 253 7 21 255 11 26 255 16 30 255 20 76 253 1 81 255 6 86 255 11 90 255 15 127 255 0 131 255 1 136 255 6 141 255 11 186 255 0 190 255 0 196 255 4 199 255 7 250 254 10 243 247 3 232 236 0 223 227 0 251 197 1 242 188 0 231 177 0 224 170 0 252 135 0 245 128 0 235 118 0 226 109 0 255 74 0 251 65 0 242 56 0 235 49 0 253 17 0 243 7 0 243 7 0 249 13 0 255 0 30 255 1 31 255 5 35 255 6 36 255 0 93 255 1 95 255 3 97 255 4 98 255 0 165 255 0 167 255 0 169 255 1 171 255 0 232 255 0 231 255 2 234 255 10 242 251 31 255 255 40 255 255 50 255 255 57 255 253 90 255 255 97 255 255 108 255 255 117 255 250 151 254 255 160 255 255 171 255 255 178 255 253 212 255 255 220 255 255 230 255 255 237 255 255 253 255 255 252 254 255 252 254 255 253 255 0 0 5 0 0 5 0 0 5 0 0 5 1 0 35 3 0 37 4 0 38 5 0 39 0 0 88 0 0 90 2 0 92 4 0 94 0 0 150 0 0 151 0 2 153 0 4 155 0 0 216 0 1 217 0 3 219 0 5 221 0 5 246 0 8 249 0 17 255 4 26 255 0 59 241 0 66 248 0 77 255 3 86 255 0 124 228 0 132 236 0 142 246 0 149 253 0 179 238 0 189 248 0 198 255 2 205 255 0 233 242 0 244 253 2 250 255 2 250 255 255 79 205 255 77 203 255 75 201 255 73 199 1 255 141 0 255 139 0 254 137 0 252 135 5 255 82 3 255 80 1 253 78 0 251 76 2 255 29 0 255 27 0 253 25 0 251 23 33 247 0 37 251 0 42 255 0 46 255 4 94 246 0 99 251 0 104 255 0 108 255 0 159 245 0 163 249 0 168 254 0 173 255 4 214 245 0 218 249 0 224 255 2 227 255 5 255 241 14 255 234 7 255 223 0 247 214 0 255 186 14 255 177 5 248 166 0 241 159 0 255 127 16 254 120 9 244 110 0 235 101 0 255 67 19 253 58 10 244 49 1 237 42 0 249 11 34 239 1 24 239 1 24 245 7 30 248 0 73 249 0 74 253 1 78 254 2 79 247 0 141 249 0 143 251 1 145 252 2 146 247 0 195 249 0 197 251 1 199 253 3 201 242 6 238 241 5 237 244 8 240 252 16 248 237 41 237 246 50 246 255 60 255 255 67 255 239 102 231 246 109 238 255 120 249 255 129 255 235 162 231 244 171 240 255 182 251 255 189 255 239 221 245 247 229 253 255 239 255 255 246 255 247 255 253 246 255 252 246 255 252 247 255 253 0 4 0 0 4 0 0 4 0 0 4 0 0 0 16 1 0 18 2 1 19 3 2 20 0 0 59 1 1 61 3 3 63 5 5 65 0 1 118 0 2 119 0 4 121 1 6 123 1 0 189 2 0 190 4 1 192 6 3 194 0 0 237 2 2 240 11 11 249 20 20 255 0 46 250 6 53 255 17 64 255 26 73 255 0 107 247 8 115 255 18 125 255 25 132 255 0 171 247 0 181 255 8 190 255 15 197 255 0 226 250 7 237 255 13 243 255 13 243 255 0 255 214 0 255 212 0 253 210 0 251 208 4 255 150 2 253 148 0 251 146 0 249 144 2 255 91 0 255 89 0 253 87 0 251 85 0 255 38 0 255 36 0 255 34 0 254 32 22 251 0 26 255 2 31 255 7 35 255 11 81 251 0 86 255 0 91 255 4 95 255 8 138 255 0 142 255 0 147 255 2 152 255 7 196 254 0 200 255 0 206 255 4 209 255 7 255 249 12 252 242 5 241 231 0 232 222 0 255 193 5 249 184 0 238 173 0 231 166 0 255 132 0 249 125 0 239 115 0 230 106 0 255 72 0 253 63 0 244 54 0 237 47 0 253 14 7 243 4 0 243 4 0 249 10 3 255 0 43 255 0 44 255 3 48 255 4 49 255 0 108 255 1 110 255 3 112 255 4 113 255 0 174 255 0 176 255 0 178 255 2 180 252 2 234 251 1 233 254 4 236 255 12 244 247 34 250 255 43 255 255 53 255 255 60 255 249 94 250 255 101 255 255 112 255 255 121 255 245 154 247 254 163 255 255 174 255 255 181 255 249 215 252 255 223 255 255 233 255 255 240 255 255 254 255 255 253 254 255 253 254 255 254 255 0 2 0 0 2 0 0 2 0 0 2 0 0 0 27 2 0 29 3 0 30 4 0 31 0 0 75 0 0 77 2 1 79 4 3 81 0 0 137 0 1 138 0 3 140 0 5 142 0 0 205 0 0 206 0 2 208 0 4 210 0 3 242 0 6 245 2 15 254 11 24 255 0 53 245 0 60 252 4 71 255 13 80 255 0 117 235 0 125 243 4 135 253 11 142 255 0 176 235 0 186 245 1 195 254 8 202 255 0 232 238 0 243 249 6 249 255 6 249 255 0 255 202 0 255 200 0 255 198 0 255 196 2 255 138 0 255 136 0 254 134 0 252 132 3 255 79 1 255 77 0 255 75 0 253 73 0 255 26 0 255 24 0 255 22 0 254 20 29 250 0 33 254 0 38 255 0 42 255 0 88 250 0 93 255 0 98 255 0 102 255 0 155 246 0 159 250 0 164 255 0 169 255 5 211 246 0 215 250 0 221 255 2 224 255 5 255 242 14 255 235 7 255 224 0 246 215 0 255 187 10 255 178 1 248 167 0 241 160 0 255 127 9 255 120 2 246 110 0 237 101 0 255 66 10 255 57 1 249 48 0 242 41 0 255 10 23 246 0 13 246 0 13 252 6 19 255 0 60 255 0 61 255 0 65 255 0 66 251 0 127 253 0 129 255 2 131 255 3 132 251 0 186 253 0 188 255 0 190 255 2 192 246 4 236 245 3 235 248 6 238 255 14 246 241 38 243 250 47 252 255 57 255 255 64 255 244 99 238 251 106 245 255 117 255 255 126 255 240 159 238 249 168 247 255 179 255 255 186 255 243 218 249 251 226 255 255 236 255 255 243 255 249 255 253 248 255 252 248 255 252 249 255 253
